<?xml version="1.0" encoding="UTF-8"?>
<svg version="1.1" xmlns="http://www.w3.org/2000/svg" width="64" height="64">
<path d="M0 0 C5.46185727 2.83716614 10.82235739 8.54519718 12.76953125 14.38671875 C14.37503975 33.15274428 4.29786265 45.52819271 -7.23046875 59.38671875 C-10.88104612 59.15936963 -12.07669174 58.54618205 -14.66015625 55.8671875 C-15.49124215 54.78158155 -16.30561402 53.68303635 -17.10546875 52.57421875 C-17.53601562 51.99470459 -17.9665625 51.41519043 -18.41015625 50.81811523 C-26.86266572 39.2352214 -32.66430117 29.07430984 -31.23046875 14.38671875 C-29.47491289 8.26449545 -24.23036463 4.02113999 -19.23046875 0.38671875 C-13.35980383 -1.57016956 -5.97817095 -1.64373527 0 0 Z M-26.23046875 11.01171875 C-29.01218502 16.15454814 -29.42801865 20.6861011 -28.23046875 26.38671875 C-24.39960731 37.33782832 -17.5968063 46.57126562 -10.23046875 55.38671875 C-2.40131351 52.77700034 3.84747609 39.82128787 7.45703125 32.63671875 C10.23296521 26.06001473 11.47552649 19.94382931 8.9140625 13.1015625 C6.12615309 8.01101118 2.25763127 4.35773326 -3.23046875 2.38671875 C-13.0216456 0.77901542 -20.29018822 2.97000193 -26.23046875 11.01171875 Z " fill="#FDFDFD" transform="translate(41.23046875,2.61328125)"/>
<path d="M0 0 C0.99 0.66 1.98 1.32 3 2 C3 2.99 3 3.98 3 5 C3.66 5 4.32 5 5 5 C5.60150376 12.09774436 5.60150376 12.09774436 3 16 C-0.32830398 18.21886932 -2.13955335 18.76241935 -6.0625 18.47265625 C-9.66317126 17.59426669 -11.00772296 16.05067422 -13 13 C-13.86522074 8.69686677 -13.72193187 5.28692202 -11.5625 1.4375 C-7.82070106 -0.66155794 -4.20312789 -0.66568876 0 0 Z M-9 5 C-10.31968178 6.10528442 -10.31968178 6.10528442 -10.25 8.875 C-10.23976075 11.9152361 -10.23976075 11.9152361 -8.875 13.875 C-6.11909116 15.52854531 -4.14924548 15.39365568 -1 15 C0.95625978 14.04451019 0.95625978 14.04451019 2 12 C2.73041853 8.38976901 2.73041853 8.38976901 3 5 C-2.39385849 1.59335254 -3.61688225 1.54928349 -9 5 Z " fill="#FEFEFE" transform="translate(36,15)"/>
<path d="M0 0 C3 0.25 3 0.25 5 2.25 C5.25 5.25 5.25 5.25 5 8.25 C3 10.25 3 10.25 0 10.5 C-3 10.25 -3 10.25 -5 8.25 C-5.25 5.25 -5.25 5.25 -5 2.25 C-3 0.25 -3 0.25 0 0 Z M-2 3.25 C-2 4.57 -2 5.89 -2 7.25 C-0.68 7.25 0.64 7.25 2 7.25 C2 5.93 2 4.61 2 3.25 C0.68 3.25 -0.64 3.25 -2 3.25 Z " fill="#FEFEFE" transform="translate(32,18.75)"/>
<path d="M0 0 C0.99 0 1.98 0 3 0 C5.05701803 3.3957123 5.26969117 6.0617659 5.25 10 C5.25515625 11.03125 5.2603125 12.0625 5.265625 13.125 C5.00499165 15.94597278 4.45296344 17.60145718 3 20 C2.01 20 1.02 20 0 20 C0.165 19.38125 0.33 18.7625 0.5 18.125 C1.4545776 12.15889001 1.56552033 5.87070123 0 0 Z " fill="#FDFDFD" transform="translate(44,14)"/>
<path d="M0 0 C0.99 0 1.98 0 3 0 C2.835 0.61875 2.67 1.2375 2.5 1.875 C1.5454224 7.84110999 1.43447967 14.12929877 3 20 C2.01 20 1.02 20 0 20 C-2.05701803 16.6042877 -2.26969117 13.9382341 -2.25 10 C-2.25515625 8.96875 -2.2603125 7.9375 -2.265625 6.875 C-2.00499165 4.05402722 -1.45296344 2.39854282 0 0 Z " fill="#FDFDFD" transform="translate(17,14)"/>
</svg>
