<svg xmlns="http://www.w3.org/2000/svg" version="1.0" preserveAspectRatio="xMidYMid meet" viewBox="110.93 218.5 567.08 142.44">

<g transform="translate(0.000000,592.000000) scale(0.100000,-0.100000)" fill="#000000" stroke="none">
<path d="M1715 3730 c-222 -32 -437 -193 -535 -402 -44 -92 -40 -110 12 -58 145 145 375 220 579 190 102 -14 226 -59 296 -105 56 -37 184 -158 201 -190 15 -29 21 -17 34 74 17 122 -13 311 -58 361 -25 29 -169 98 -234 114 -86 19 -220 27 -295 16z"/>
<path d="M3657 3543 c-4 -3 -7 -96 -7 -205 0 -251 7 -267 108 -268 28 0 32 3 32 25 0 22 -4 25 -39 25 -26 0 -41 5 -45 16 -3 9 -6 105 -6 215 0 186 -1 199 -18 199 -10 0 -22 -3 -25 -7z"/>
<path d="M5160 3310 l0 -240 158 0 c209 0 205 -3 211 152 4 129 -7 179 -44 196 -15 7 -77 12 -150 12 l-125 0 0 60 c0 57 -1 60 -25 60 l-25 0 0 -240z m308 58 c15 -15 16 -201 2 -229 -10 -17 -22 -19 -129 -19 -99 0 -120 3 -125 16 -11 30 -7 219 6 232 17 17 229 17 246 0z"/>
<path d="M6315 3538 c-2 -7 -6 -33 -7 -58 l-3 -45 -136 -5 c-181 -7 -178 -4 -179 -183 0 -123 1 -129 25 -152 24 -24 28 -25 185 -25 l160 0 -2 237 c-3 217 -5 238 -21 241 -9 2 -19 -2 -22 -10z m-17 -170 c13 -13 17 -184 6 -225 -6 -22 -10 -23 -123 -23 -78 0 -121 4 -129 12 -8 8 -12 49 -12 118 0 69 4 110 12 118 17 17 229 17 246 0z"/>
<path d="M2717 3513 c-4 -3 -7 -105 -7 -225 l0 -218 25 0 25 0 0 100 0 100 178 -2 177 -3 3 -97 c3 -97 3 -98 27 -98 l25 0 0 225 0 225 -25 0 -25 0 0 -100 0 -100 -180 0 -180 0 0 100 c0 90 -2 100 -18 100 -10 0 -22 -3 -25 -7z"/>
<path d="M2354 3485 c34 -89 32 -308 -4 -415 -65 -194 -192 -342 -365 -426 -88 -42 -192 -74 -247 -74 -16 0 -28 -4 -28 -8 0 -13 109 -91 170 -122 66 -33 181 -70 221 -70 40 0 138 61 215 133 84 78 150 178 189 287 28 81 30 93 30 235 -1 158 -11 205 -68 320 -39 79 -136 198 -113 140z"/>
<path d="M3285 3421 c-45 -19 -50 -37 -50 -172 0 -121 1 -129 24 -153 24 -26 26 -26 183 -26 l158 0 0 25 0 25 -148 0 c-102 0 -152 4 -160 12 -7 7 -12 29 -12 50 l0 38 160 0 160 0 0 79 c0 121 -6 125 -167 128 -70 2 -137 -1 -148 -6z m249 -47 c11 -4 16 -19 16 -49 l0 -44 -97 -3 c-54 -2 -115 -2 -135 0 -35 3 -38 6 -38 33 0 64 9 69 130 69 59 0 115 -3 124 -6z"/>
<path d="M3840 3180 l0 -250 25 0 c24 0 25 2 25 70 l0 70 133 0 c131 0 134 1 158 26 23 24 24 32 24 156 l0 130 -28 24 c-27 23 -34 24 -183 24 l-154 0 0 -250z m305 70 l0 -125 -125 0 -125 0 -3 114 c-1 63 0 121 2 128 4 11 33 13 128 11 l123 -3 0 -125z"/>
<path d="M4293 3420 c-36 -15 -43 -43 -43 -175 0 -120 1 -127 25 -150 23 -24 28 -25 178 -25 159 0 167 2 167 41 0 4 -71 10 -157 11 l-158 3 -3 48 -3 47 154 0 c177 0 166 -7 164 101 -2 53 -6 64 -30 85 -27 23 -35 24 -150 23 -67 0 -132 -4 -144 -9z m251 -46 c11 -4 16 -19 16 -50 l0 -44 -130 0 -130 0 0 44 c0 26 5 46 13 49 18 8 212 8 231 1z"/>
<path d="M4730 3423 c-47 -17 -50 -28 -50 -195 l0 -159 23 3 c21 3 22 7 27 153 l5 150 108 3 c106 3 107 3 107 27 l0 25 -102 -1 c-57 0 -110 -3 -118 -6z"/>
<path d="M5577 3423 c-4 -3 -7 -69 -7 -145 0 -144 10 -188 45 -202 9 -3 75 -6 146 -6 125 0 131 1 155 25 24 24 24 26 22 177 -3 150 -3 153 -25 156 -23 3 -23 3 -23 -136 0 -77 -3 -147 -6 -156 -5 -13 -26 -16 -129 -16 -103 0 -124 3 -129 16 -3 9 -6 78 -6 155 0 128 -1 139 -18 139 -10 0 -22 -3 -25 -7z"/>
<path d="M6414 3415 c-3 -8 -4 -78 -2 -156 3 -140 3 -141 31 -165 27 -23 35 -24 158 -24 l129 0 0 -29 c0 -60 -1 -61 -131 -61 l-119 0 0 -25 0 -25 129 0 c181 0 171 -16 171 276 l0 224 -25 0 -25 0 0 -139 c0 -77 -3 -146 -6 -155 -5 -13 -26 -16 -125 -16 -107 0 -119 2 -129 19 -5 11 -10 81 -10 155 0 130 -1 136 -20 136 -11 0 -23 -7 -26 -15z"/>
<path d="M1470 3352 c-127 -39 -304 -164 -346 -244 -33 -64 -8 -252 52 -377 120 -255 339 -406 606 -419 109 -5 207 4 192 17 -5 4 -35 15 -67 25 -93 28 -195 93 -282 181 -146 145 -213 324 -202 535 5 100 34 227 59 257 13 17 6 31 -12 25z"/>
<path d="M3400 2640 c0 -79 3 -141 6 -137 8 8 7 267 0 275 -4 3 -6 -59 -6 -138z"/>
<path d="M4320 2640 c0 -87 4 -140 10 -140 6 0 10 53 10 140 0 87 -4 140 -10 140 -6 0 -10 -53 -10 -140z"/>
<path d="M3065 2750 c-3 -6 -17 -40 -30 -78 -12 -37 -26 -75 -30 -84 -5 -13 -2 -18 8 -18 9 0 18 13 22 30 6 26 11 30 41 30 30 0 35 -4 41 -30 3 -17 12 -30 20 -30 8 0 13 6 11 13 -3 6 -17 49 -32 95 -26 78 -37 94 -51 72z m34 -92 c1 -5 -11 -8 -25 -8 -20 0 -25 4 -20 16 3 9 9 28 13 42 l6 27 13 -35 c7 -19 13 -38 13 -42z"/>
<path d="M3195 2734 c-35 -38 -35 -105 0 -139 23 -24 57 -31 89 -19 30 12 16 22 -23 17 -32 -4 -41 -2 -55 18 -19 27 -21 62 -5 92 17 32 30 38 69 32 33 -5 34 -4 16 10 -29 23 -64 18 -91 -11z"/>
<path d="M3738 2740 c-30 -23 -41 -66 -28 -110 12 -40 36 -59 77 -60 44 0 73 38 73 97 0 78 -66 118 -122 73z m81 -14 c34 -41 16 -128 -28 -134 -52 -8 -82 74 -45 126 17 25 56 29 73 8z"/>
<path d="M3908 2722 c-4 -52 3 -153 11 -148 3 3 6 32 5 65 -1 34 1 61 5 61 4 0 15 -25 26 -55 19 -57 32 -68 41 -37 3 9 14 35 24 57 l19 40 0 -67 c1 -38 5 -68 11 -68 13 0 13 177 0 185 -10 6 -43 -53 -54 -98 -9 -37 -19 -29 -41 37 -23 68 -42 79 -47 28z"/>
<path d="M4117 2753 c-4 -3 -7 -46 -7 -95 l0 -88 55 0 c30 0 55 5 55 10 0 6 -18 10 -40 10 -39 0 -40 1 -40 35 0 33 2 35 35 35 19 0 35 5 35 10 0 6 -16 10 -35 10 -32 0 -35 2 -35 30 0 28 2 30 41 30 24 0 38 4 34 10 -7 11 -88 14 -98 3z"/>
<path d="M4463 2734 c-22 -22 -25 -32 -21 -75 6 -63 29 -89 79 -89 48 0 74 34 74 98 0 80 -79 119 -132 66z m91 -16 c21 -29 20 -92 0 -113 -25 -24 -66 -15 -82 18 -35 72 39 157 82 95z"/>
<path d="M4647 2753 c-11 -11 -8 -183 3 -183 6 0 10 18 10 40 0 39 1 40 34 40 48 0 55 18 9 22 -35 3 -38 6 -38 33 0 28 3 30 43 33 23 2 40 7 37 13 -7 10 -88 13 -98 2z"/>
<path d="M4787 2753 c-4 -3 -7 -46 -7 -95 0 -67 3 -89 13 -86 6 3 13 21 15 41 3 30 7 37 25 37 12 0 29 5 37 10 11 7 5 10 -22 10 -37 0 -38 1 -38 35 0 34 1 35 40 35 22 0 40 5 40 10 0 11 -93 14 -103 3z"/>
<path d="M4924 2747 c-10 -27 1 -170 14 -175 9 -3 12 19 12 87 0 82 -12 124 -26 88z"/>
<path d="M5029 2747 c-65 -50 -43 -177 31 -177 33 0 60 9 60 20 0 5 -18 6 -40 3 -38 -5 -41 -4 -56 32 -29 69 5 123 69 109 28 -6 30 -5 18 10 -16 19 -59 21 -82 3z"/>
<path d="M5167 2753 c-4 -3 -7 -46 -7 -95 l0 -88 55 0 c30 0 55 5 55 10 0 6 -18 10 -40 10 -39 0 -40 1 -40 35 0 33 2 35 35 35 19 0 35 5 35 10 0 6 -16 10 -35 10 -32 0 -35 2 -35 30 0 28 2 30 40 30 22 0 40 5 40 10 0 11 -93 14 -103 3z"/>
<path d="M5386 2744 c-9 -8 -16 -26 -16 -40 0 -19 10 -29 45 -46 35 -17 45 -27 43 -43 -4 -24 -51 -33 -74 -14 -8 6 -18 9 -22 5 -12 -13 30 -36 65 -36 24 0 37 7 50 26 20 32 11 52 -37 76 -48 25 -55 34 -40 53 10 12 23 15 49 11 34 -6 35 -5 17 9 -25 19 -60 19 -80 -1z"/>
<path d="M5527 2753 c-4 -3 -7 -46 -7 -95 l0 -88 61 0 c37 0 58 4 54 10 -3 6 -24 10 -46 10 -38 0 -39 1 -39 35 0 33 2 35 35 35 19 0 35 5 35 10 0 6 -16 10 -35 10 -32 0 -35 2 -35 30 0 28 2 30 40 30 22 0 40 5 40 10 0 11 -93 14 -103 3z"/>
<path d="M5680 2665 c0 -57 4 -95 10 -95 6 0 10 18 10 40 0 32 4 40 19 40 11 0 23 -12 31 -30 13 -32 37 -56 46 -47 4 3 -4 22 -16 42 l-22 36 21 15 c49 35 10 94 -61 94 l-38 0 0 -95z m90 54 c15 -27 -3 -49 -41 -49 -26 0 -29 3 -29 35 0 32 2 35 30 35 19 0 33 -7 40 -21z"/>
<path d="M5937 2753 c-3 -5 -15 -42 -27 -83 l-23 -75 -24 78 c-13 42 -28 77 -33 77 -15 0 -12 -18 16 -103 18 -55 30 -77 41 -75 17 3 76 175 63 183 -5 3 -11 2 -13 -2z"/>
<path d="M5987 2753 c-2 -5 -5 -47 -6 -95 -2 -74 0 -88 13 -88 13 0 16 15 16 89 0 79 -9 117 -23 94z"/>
<path d="M6087 2740 c-35 -28 -45 -81 -24 -126 18 -36 50 -50 92 -40 37 9 30 26 -8 19 -43 -7 -71 23 -69 74 2 50 28 76 69 70 34 -6 45 6 17 17 -28 11 -51 6 -77 -14z"/>
<path d="M6230 2675 c0 -47 0 -88 0 -92 0 -5 25 -9 56 -11 37 -2 54 0 49 7 -3 6 -24 11 -46 11 -38 0 -39 1 -39 35 0 33 2 35 35 35 19 0 35 5 35 10 0 6 -16 10 -35 10 -32 0 -35 2 -35 30 0 28 2 30 40 30 22 0 40 5 40 10 0 6 -22 10 -50 10 l-50 0 0 -85z"/>
<path d="M6390 2742 c-31 -25 -19 -57 30 -82 45 -23 52 -32 44 -54 -7 -19 -55 -21 -72 -4 -17 17 -28 2 -12 -17 20 -24 87 -20 100 6 19 35 4 68 -41 85 -31 13 -39 21 -37 38 3 18 9 21 41 19 38 -2 50 10 21 21 -27 10 -51 7 -74 -12z"/>
<path d="M3527 2663 c1 -53 6 -89 12 -91 7 -2 11 14 11 42 l0 46 45 0 45 0 0 -45 c0 -25 5 -45 10 -45 6 0 10 37 10 90 0 53 -4 90 -10 90 -5 0 -10 -16 -10 -35 0 -35 0 -35 -45 -35 -45 0 -45 0 -45 35 0 21 -5 35 -12 35 -10 0 -13 -23 -11 -87z"/>
</g>
</svg>