<?xml version="1.0" encoding="UTF-8"?>
<svg version="1.1" xmlns="http://www.w3.org/2000/svg" width="64" height="64">
<path d="M0 0 C1.21236328 0.04060547 1.21236328 0.04060547 2.44921875 0.08203125 C3.06410156 0.11683594 3.67898437 0.15164062 4.3125 0.1875 C5.32491247 2.07673398 6.32197425 3.97419944 7.3125 5.875 C7.869375 6.93074219 8.42625 7.98648437 9 9.07421875 C10.28716542 12.12740577 10.73421825 13.92929325 10.3125 17.1875 C9.3125 18.1875 8.3125 19.1875 7.3125 20.1875 C7.91454664 25.34320848 11.74327225 28.72428891 15.3125 32.1875 C17.67218888 34.04189167 19.48853673 35.01528883 22.3125 36.1875 C25.76360784 35.34804134 26.30018233 34.2059765 28.3125 31.1875 C30.05078125 30.3203125 30.05078125 30.3203125 32.3125 30.1875 C35.29296875 31.3671875 35.29296875 31.3671875 38.5 33.0625 C39.56605469 33.61679687 40.63210937 34.17109375 41.73046875 34.7421875 C44.3125 36.1875 44.3125 36.1875 45.3125 37.1875 C45.89888743 44.22414921 45.89888743 44.22414921 43.5625 48.0625 C38.97092323 52.39898917 34.89738354 52.7559158 28.7265625 52.61328125 C15.24455095 50.93188622 5.41568859 42.65901913 -2.8828125 32.5 C-8.22165213 25.17305691 -11.9589095 18.4942175 -10.6875 9.1875 C-8.46132942 3.46306136 -6.46573552 -0.28111894 0 0 Z M-2.6875 3.1875 C-6.04016778 7.16879299 -8.1553645 9.72293964 -8.01171875 15.08203125 C-6.35459145 25.84337599 2.92975328 34.70715494 10.96875 41.3984375 C18.30475955 46.76459263 24.83724053 49.82005767 34.03515625 49.55078125 C37.34311786 49.02309612 39.12489044 47.66679083 41.3125 45.1875 C41.3125 44.5275 41.3125 43.8675 41.3125 43.1875 C37.0225 41.2075 32.7325 39.2275 28.3125 37.1875 C27.6525 37.8475 26.9925 38.5075 26.3125 39.1875 C22.6875 39.3125 22.6875 39.3125 19.3125 39.1875 C19.3125 40.1775 19.3125 41.1675 19.3125 42.1875 C14.30418756 39.98872868 10.07095875 37.16339024 6.3125 33.1875 C5.9825 32.1975 5.6525 31.2075 5.3125 30.1875 C5.9725 29.8575 6.6325 29.5275 7.3125 29.1875 C6.6525 28.5275 5.9925 27.8675 5.3125 27.1875 C5.3125 27.8475 5.3125 28.5075 5.3125 29.1875 C3.9925 28.5275 2.6725 27.8675 1.3125 27.1875 C1.3125 26.5275 1.3125 25.8675 1.3125 25.1875 C1.9725 24.8575 2.6325 24.5275 3.3125 24.1875 C4.78225659 18.55698321 3.83644719 14.83986345 1.375 9.75 C1.08431641 9.11384766 0.79363281 8.47769531 0.49414062 7.82226562 C-0.21770725 6.27020386 -0.95047893 4.72776721 -1.6875 3.1875 C-2.0175 3.1875 -2.3475 3.1875 -2.6875 3.1875 Z M2.3125 4.1875 C3.3125 6.1875 3.3125 6.1875 3.3125 6.1875 Z M3.3125 6.1875 C3.6425 7.8375 3.9725 9.4875 4.3125 11.1875 C4.6425 10.1975 4.9725 9.2075 5.3125 8.1875 C4.6525 7.5275 3.9925 6.8675 3.3125 6.1875 Z M5.3125 11.1875 C6.3125 13.1875 6.3125 13.1875 6.3125 13.1875 Z M6.3125 13.1875 C7.3125 15.1875 7.3125 15.1875 7.3125 15.1875 Z M33.3125 35.1875 C36.16556797 37.51222205 38.85324837 38.9383258 42.3125 40.1875 C42.3125 39.5275 42.3125 38.8675 42.3125 38.1875 C38.0487719 35.82839647 38.0487719 35.82839647 33.3125 35.1875 Z " fill="#FEFEFE" transform="translate(14.6875,5.8125)"/>
<path d="M0 0 C4.66566172 0.11181324 8.05125014 0.36750009 12 3 C14.63249991 6.94874986 14.88818676 10.33433828 15 15 C14.01 14.67 13.02 14.34 12 14 C11.525625 12.88625 11.05125 11.7725 10.5625 10.625 C8.54525905 5.94500099 6.80537112 4.77959207 2.25 2.8125 C1.5075 2.544375 0.765 2.27625 0 2 C0 1.34 0 0.68 0 0 Z " fill="#FDFDFD" transform="translate(32,14)"/>
<path d="M0 0 C3.375 0.3125 3.375 0.3125 7 1 C9.1519437 4.22791555 9.20086443 5.28400809 9 9 C8.01 8.67 7.02 8.34 6 8 C5.690625 7.360625 5.38125 6.72125 5.0625 6.0625 C3.7657662 3.54531085 2.5778263 3.03113052 0 2 C0 1.34 0 0.68 0 0 Z " fill="#FDFDFD" transform="translate(32,20)"/>
<path d="M0 0 C0.99 0.33 1.98 0.66 3 1 C2.34 2.32 1.68 3.64 1 5 C0.01 4.67 -0.98 4.34 -2 4 C-1.34 2.68 -0.68 1.36 0 0 Z " fill="#FEFEFE" transform="translate(46,12)"/>
<path d="M0 0 C0 0.99 0 1.98 0 3 C-1.32 3.33 -2.64 3.66 -4 4 C-4.33 3.01 -4.66 2.02 -5 1 C-3 0 -3 0 0 0 Z " fill="#FEFEFE" transform="translate(52,17)"/>
<path d="M0 0 C0.99 0 1.98 0 3 0 C2.67 1.65 2.34 3.3 2 5 C1.01 4.67 0.02 4.34 -1 4 C-0.67 2.68 -0.34 1.36 0 0 Z " fill="#FEFEFE" transform="translate(41,9)"/>
<path d="M0 0 C1.32 0 2.64 0 4 0 C4 0.99 4 1.98 4 3 C2.35 3 0.7 3 -1 3 C-0.67 2.01 -0.34 1.02 0 0 Z " fill="#FEFEFE" transform="translate(50,22)"/>
<path d="M0 0 C0.99 0 1.98 0 3 0 C2.67 1.65 2.34 3.3 2 5 C1.34 5 0.68 5 0 5 C0 3.35 0 1.7 0 0 Z " fill="#FEFEFE" transform="translate(36,7)"/>
</svg>
