<?xml version="1.0" encoding="UTF-8"?>
<svg version="1.1" xmlns="http://www.w3.org/2000/svg" width="64" height="64">
<path d="M0 0 C19.8 0 39.6 0 60 0 C60 13.86 60 27.72 60 42 C40.2 42 20.4 42 0 42 C0 28.14 0 14.28 0 0 Z M2 3 C1.95907063 5.33297433 1.95758277 7.66705225 2 10 C5.76387865 12.02766976 9.53578473 14.03924354 13.31591797 16.03637695 C14.6004662 16.71789125 15.88272525 17.40373873 17.16259766 18.09399414 C19.00357661 19.08589475 20.85224708 20.06188007 22.703125 21.03515625 C23.81333008 21.6269165 24.92353516 22.21867676 26.06738281 22.82836914 C28.78918849 24.15952247 28.78918849 24.15952247 31.02734375 23.86914062 C33.69624072 22.69324047 36.27689864 21.41571143 38.859375 20.05859375 C39.97441406 19.47529297 41.08945312 18.89199219 42.23828125 18.29101562 C43.39714844 17.67935547 44.55601563 17.06769531 45.75 16.4375 C46.93599267 15.81536379 48.1221885 15.19361469 49.30859375 14.57226562 C52.20775144 13.05197562 55.10477151 11.52775569 58 10 C58.04241723 7.66705225 58.04092937 5.33297433 58 3 C56.31987658 1.31987658 54.24912808 1.87252661 51.9453125 1.87060547 C50.86749512 1.86745331 49.78967773 1.86430115 48.67919922 1.86105347 C47.50631348 1.8630777 46.33342773 1.86510193 45.125 1.8671875 C43.9302002 1.86623077 42.73540039 1.86527405 41.50439453 1.86428833 C38.9723302 1.86360629 36.44026412 1.86546222 33.90820312 1.86962891 C30.0168874 1.87497679 26.12568711 1.86968467 22.234375 1.86328125 C19.78124974 1.86394203 17.32812456 1.86522318 14.875 1.8671875 C13.70211426 1.86516327 12.52922852 1.86313904 11.32080078 1.86105347 C9.70407471 1.86578171 9.70407471 1.86578171 8.0546875 1.87060547 C6.62358643 1.87179886 6.62358643 1.87179886 5.16357422 1.87301636 C3.02012111 1.75839152 3.02012111 1.75839152 2 3 Z M2 14 C1.97113249 18.14581887 1.95324673 22.29161216 1.9375 26.4375 C1.92912109 27.62150391 1.92074219 28.80550781 1.91210938 30.02539062 C1.90888672 31.15009766 1.90566406 32.27480469 1.90234375 33.43359375 C1.89710693 34.47572021 1.89187012 35.51784668 1.88647461 36.59155273 C1.72694444 38.95128747 1.72694444 38.95128747 3 40 C4.68255235 40.0987517 6.36924028 40.12798904 8.0546875 40.12939453 C9.13250488 40.13254669 10.21032227 40.13569885 11.32080078 40.13894653 C12.49368652 40.1369223 13.66657227 40.13489807 14.875 40.1328125 C16.0697998 40.13376923 17.26459961 40.13472595 18.49560547 40.13571167 C21.0276698 40.13639371 23.55973588 40.13453778 26.09179688 40.13037109 C29.9831126 40.12502321 33.87431289 40.13031533 37.765625 40.13671875 C40.21875026 40.13605797 42.67187544 40.13477682 45.125 40.1328125 C46.29788574 40.13483673 47.47077148 40.13686096 48.67919922 40.13894653 C50.29592529 40.13421829 50.29592529 40.13421829 51.9453125 40.12939453 C53.37641357 40.12820114 53.37641357 40.12820114 54.83642578 40.12698364 C56.97987889 40.24160848 56.97987889 40.24160848 58 39 C58.08737645 37.14630389 58.10698153 35.28932459 58.09765625 33.43359375 C58.09443359 32.30888672 58.09121094 31.18417969 58.08789062 30.02539062 C58.07951172 28.84138672 58.07113281 27.65738281 58.0625 26.4375 C58.05798828 25.24962891 58.05347656 24.06175781 58.04882812 22.83789062 C58.03699675 19.89187774 58.02051287 16.94596319 58 14 C51.48394751 15.84057327 45.84780482 19.23502621 39.98828125 22.54296875 C39.17746094 22.98511719 38.36664063 23.42726563 37.53125 23.8828125 C36.80486328 24.28902832 36.07847656 24.69524414 35.33007812 25.11376953 C31.32310478 26.63779649 28.20310172 26.48004908 24.23925781 24.8984375 C23.31983398 24.39570312 22.40041016 23.89296875 21.453125 23.375 C20.44378906 22.83359375 19.43445313 22.2921875 18.39453125 21.734375 C17.35683594 21.16203125 16.31914062 20.5896875 15.25 20 C13.17370168 18.87163225 11.09566335 17.74645842 9.015625 16.625 C8.10071289 16.12226563 7.18580078 15.61953125 6.24316406 15.1015625 C4.11730461 13.85306886 4.11730461 13.85306886 2 14 Z " fill="#FEFEFE" transform="translate(2,10)"/>
<path d="M0 0 C0.66 0 1.32 0 2 0 C2 1.32 2 2.64 2 4 C1.34 4 0.68 4 0 4 C0 2.68 0 1.36 0 0 Z " fill="#FDFDFD" transform="translate(56,44)"/>
<path d="M0 0 C0.66 0 1.32 0 2 0 C2 1.32 2 2.64 2 4 C1.34 4 0.68 4 0 4 C0 2.68 0 1.36 0 0 Z " fill="#FDFDFD" transform="translate(51,44)"/>
<path d="M0 0 C0.66 0 1.32 0 2 0 C2 1.32 2 2.64 2 4 C1.34 4 0.68 4 0 4 C0 2.68 0 1.36 0 0 Z " fill="#FDFDFD" transform="translate(46,44)"/>
<path d="M0 0 C0.66 0 1.32 0 2 0 C2 1.32 2 2.64 2 4 C1.34 4 0.68 4 0 4 C0 2.68 0 1.36 0 0 Z " fill="#FDFDFD" transform="translate(41,44)"/>
<path d="M0 0 C0.66 0 1.32 0 2 0 C2 1.32 2 2.64 2 4 C1.34 4 0.68 4 0 4 C0 2.68 0 1.36 0 0 Z " fill="#FDFDFD" transform="translate(36,44)"/>
<path d="M0 0 C0.66 0 1.32 0 2 0 C2 1.32 2 2.64 2 4 C1.34 4 0.68 4 0 4 C0 2.68 0 1.36 0 0 Z " fill="#FDFDFD" transform="translate(31,44)"/>
<path d="M0 0 C0.66 0 1.32 0 2 0 C2 1.32 2 2.64 2 4 C1.34 4 0.68 4 0 4 C0 2.68 0 1.36 0 0 Z " fill="#FDFDFD" transform="translate(26,44)"/>
<path d="M0 0 C0.66 0 1.32 0 2 0 C2 1.32 2 2.64 2 4 C1.34 4 0.68 4 0 4 C0 2.68 0 1.36 0 0 Z " fill="#FDFDFD" transform="translate(21,44)"/>
<path d="M0 0 C0.66 0 1.32 0 2 0 C2 1.32 2 2.64 2 4 C1.34 4 0.68 4 0 4 C0 2.68 0 1.36 0 0 Z " fill="#FDFDFD" transform="translate(16,44)"/>
<path d="M0 0 C0.66 0 1.32 0 2 0 C2 1.32 2 2.64 2 4 C1.34 4 0.68 4 0 4 C0 2.68 0 1.36 0 0 Z " fill="#FDFDFD" transform="translate(11,44)"/>
<path d="M0 0 C0.66 0 1.32 0 2 0 C2 1.32 2 2.64 2 4 C1.34 4 0.68 4 0 4 C0 2.68 0 1.36 0 0 Z " fill="#FDFDFD" transform="translate(6,44)"/>
</svg>
