<?xml version="1.0" encoding="UTF-8"?>
<svg version="1.1" xmlns="http://www.w3.org/2000/svg" width="64" height="64">
<path d="M0 0 C6.35557558 4.64039252 11.2429567 9.70960946 13.11328125 17.54296875 C14.29347809 28.32061535 13.37440572 36.79358574 6.5390625 45.5625 C0.82649984 51.88759852 -5.20699039 54.61900147 -13.72119141 55.06445312 C-23.51920653 55.25554513 -30.46684617 52.88139052 -37.76171875 46.29296875 C-44.44393037 38.88408637 -45.78315958 31.19639223 -45.33203125 21.42578125 C-44.41764858 13.45300603 -40.72930378 7.35914885 -34.8046875 2.015625 C-25.06818925 -5.46026062 -10.60929306 -6.36557584 0 0 Z M-36.32421875 7.91796875 C-42.20209507 15.72738517 -43.01862076 22.85173153 -41.88671875 32.54296875 C-39.31708237 41.07416153 -34.21413683 45.89352911 -26.82421875 50.41796875 C-20.63406597 52.75678213 -12.65149587 52.68647582 -6.37890625 50.78125 C-4.4097867 49.83412596 -2.67287177 48.79763234 -0.88671875 47.54296875 C0.00015625 46.96546875 0.88703125 46.38796875 1.80078125 45.79296875 C7.63141895 40.11991585 10.2574435 34.06866834 10.48828125 25.98046875 C10.41574797 18.17105207 8.70486056 12.56110142 3.46875 6.703125 C-3.5288951 0.24254521 -9.99126041 -1.09654564 -19.375 -0.8671875 C-26.31251906 -0.05690997 -31.60164729 2.80281189 -36.32421875 7.91796875 Z " fill="#FDFDFD" transform="translate(46.88671875,5.45703125)"/>
<path d="M0 0 C6.35678777 -0.45405627 10.73285492 0.27817434 16 4 C20.72210284 8.40868893 23.66309315 12.72103449 24.3359375 19.26953125 C24.41786976 26.70078699 24.10149587 31.72712396 20 38 C19.34 38.66 18.68 39.32 18 40 C17.01 40 16.02 40 15 40 C15.47607777 37.02451391 16.31063406 35.54816864 18.0625 33 C21.00762619 27.96513354 20.84812646 22.644169 20 17 C17.93521074 11.21478402 14.20059756 7.86889787 8.9375 4.8984375 C6.65041738 3.83789516 4.51193945 3.23549432 2 3 C2 3.99 2 4.98 2 6 C1.34 6 0.68 6 0 6 C0 4.02 0 2.04 0 0 Z " fill="#FEFEFE" transform="translate(30,8)"/>
<path d="M0 0 C0.99 0 1.98 0 3 0 C2.52392223 2.97548609 1.68936594 4.45183136 -0.0625 7 C-3.00179022 11.99571671 -2.78508812 17.39004993 -2 23 C-0.93512726 25.67411988 0.35030835 27.60044851 2 30 C2.75 32.4375 2.75 32.4375 3 34 C1.25 33.875 1.25 33.875 -1 33 C-6.58764474 25.65623834 -6.7454887 18.9955637 -6 10 C-4.75517331 6.02953384 -2.96804354 2.96804354 0 0 Z " fill="#FEFEFE" transform="translate(14,14)"/>
<path d="M0 0 C4.78187826 0.68312547 6.87629944 3.77095251 10 7.1875 C12.07086385 9.06422036 13.27355989 9.61050856 16 10 C16 11.98 16 13.96 16 16 C14.02 16 12.04 16 10 16 C9.75507813 15.26007812 9.51015625 14.52015625 9.2578125 13.7578125 C7.86346327 10.70063686 6.3411264 9.12898649 3.875 6.875 C1.6796875 4.8671875 1.6796875 4.8671875 0 3 C0 2.01 0 1.02 0 0 Z " fill="#FDFDFD" transform="translate(18,18)"/>
<path d="M0 0 C1.32 0.33 2.64 0.66 4 1 C4 2.32 4 3.64 4 5 C2.68 4.34 1.36 3.68 0 3 C0 2.01 0 1.02 0 0 Z " fill="#FEFEFE" transform="translate(39,47)"/>
<path d="M0 0 C0.99 0 1.98 0 3 0 C2.34 1.65 1.68 3.3 1 5 C0.34 5 -0.32 5 -1 5 C-0.67 3.35 -0.34 1.7 0 0 Z " fill="#FEFEFE" transform="translate(20,47)"/>
<path d="M0 0 C0.99 0.33 1.98 0.66 3 1 C3 2.32 3 3.64 3 5 C2.01 5 1.02 5 0 5 C0 3.35 0 1.7 0 0 Z " fill="#FEFEFE" transform="translate(35,49)"/>
<path d="M0 0 C0.66 0 1.32 0 2 0 C2 1.65 2 3.3 2 5 C1.01 5 0.02 5 -1 5 C-0.67 3.35 -0.34 1.7 0 0 Z " fill="#FEFEFE" transform="translate(25,49)"/>
<path d="M0 0 C0.66 0 1.32 0 2 0 C2 1.32 2 2.64 2 4 C1.34 4 0.68 4 0 4 C0 2.68 0 1.36 0 0 Z " fill="#FDFDFD" transform="translate(30,50)"/>
<path d="M0 0 C0.66 0 1.32 0 2 0 C2 1.32 2 2.64 2 4 C1.34 4 0.68 4 0 4 C0 2.68 0 1.36 0 0 Z " fill="#FDFDFD" transform="translate(30,16)"/>
</svg>
